<svg xmlns="http://www.w3.org/2000/svg" xmlns:xlink="http://www.w3.org/1999/xlink" viewBox="0 0 181.35699 124.786"><defs><style>.a{fill:none;}.b{fill:#fff;}.c{clip-path:url(#a);}.d{fill:#5e619d;}.e{fill:#a6a8c8;}.f{fill:#9395bd;}.g{fill:#282c7b;}.h{fill:#e81d24;}.i{fill:#fefefe;}.j{fill:#282c7c;}.k{fill:#fcfcfc;}.l{fill:#fbfbfb;}.m{fill:#e61d24;}</style><clipPath id="a"><circle class="a" cx="90.6785" cy="62.393" r="46.33296"/></clipPath></defs><rect class="b" y="0.001" width="181.35699" height="124.787" rx="25"/><g class="c"><path class="d" d="M44.22594,63.1616V61.92488a.05845.05845,0,0,1,.07989.02119l.00163.003a3.08494,3.08494,0,0,1,.0004,1.18854.05889.05889,0,0,1-.07929.02543Z"/><path class="e" d="M44.22594,63.1616a.07627.07627,0,0,0,.04284.00757,1.40955,1.40955,0,0,1,.00266,1.07831l-.0455-.00376Z"/><path class="f" d="M44.27288,61.92111l-.04694.00377V61.255a.05786.05786,0,0,1,.07927.02031l.00167.003A.7511.7511,0,0,1,44.27288,61.92111Z"/><path class="g" d="M139.25012,50.88018c.26765.91248.4422,1.84585.61821,2.77858a48.10172,48.10172,0,0,1,.8202,9.35808,49.35038,49.35038,0,0,1-.62873,7.3697c-.01077.06748-.03144.13338-.04748.2a.92356.92356,0,0,1-.21877.283c-1.23273,1.23178-2.44507,2.4848-3.70336,3.68986-.99828.956-1.94519,1.96374-2.95543,2.90567-.7602.70877-1.471,1.46587-2.22378,2.1808-1.21934,1.15814-2.4135,2.34206-3.621,3.51226q-1.44141,1.39687-2.88977,2.7868-1.26822,1.224-2.5441,2.44041-1.04241.99462-2.0867,1.98731-1.90546,1.80438-3.81517,3.60427c-.76845.72227-1.53293,1.44925-2.31144,2.16053-1.00642.91947-2.00278,1.84987-3.00861,2.77q-1.01535.92875-2.03185,1.85667-1.12353,1.01965-2.25942,2.02634c-.72376.64391-1.44161,1.29478-2.1655,1.93865-.69818.621-1.39987,1.23828-2.09659,1.86085-.67767.60556-1.3617,1.20392-2.03892,1.81-.74107.6632-1.496,1.311-2.234,1.97776a.747.747,0,0,1-.22527.11974,45.40063,45.40063,0,0,1-5.85037.27275,47.35521,47.35521,0,0,1-5.20249-.357,46.10034,46.10034,0,0,1-7.364-1.504c-.01967-.11421.06726-.16879.1345-.23011.53686-.48958,1.06242-.991,1.58972-1.4909.89946-.85271,1.80648-1.69769,2.70586-2.55065.06884-.06529.15352-.20272.26334-.03249a2.17039,2.17039,0,0,0,.18369.42457.83472.83472,0,0,0,.70134.362c1.0546.05394,2.10974.05227,3.16508.05094q2.09891-.00268,4.19783,0c1.08961.00152,2.17753-.0754,3.26788-.058a.78021.78021,0,0,0,.86769-.86373q.01457-1.01707-.00075-2.03445a1.49109,1.49109,0,0,0-.31911-.98434,1.14523,1.14523,0,0,0-.5523-.358,1.02067,1.02067,0,0,1-.82338-1.18558q.0051-.02835.01181-.05636a4.52393,4.52393,0,0,0-.03584-1.35788,3.05389,3.05389,0,0,1,.132-1.89334.45586.45586,0,0,0-.0491-.44347,1.37017,1.37017,0,0,1-.07632-1.33079,2.83526,2.83526,0,0,0,.1761-.61731.44231.44231,0,0,1,.1529-.23038c.81458-.81143,1.666-1.58422,2.49865-2.37667q1.36042-1.29478,2.73079-2.57948,1.367-1.288,2.733-2.57713,1.36393-1.29114,2.73228-2.57774,1.36427-1.29075,2.7325-2.57741,1.36566-1.28928,2.73221-2.57766,1.36513-1.28979,2.73246-2.57741,1.33821-1.26209,2.67687-2.52379c.91228-.85766,1.82-1.72,2.73232-2.57764s1.82063-1.71945,2.73211-2.57794,1.8232-1.7167,2.73279-2.57722c.90333-.85458,1.79381-1.7242,2.71793-2.555a37.95262,37.95262,0,0,0,2.86382-3.01948q1.10508-1.237,2.23025-2.45685c1.02674-1.10636,2.05342-2.21228,3.09431-3.30557,1.148-1.20574,2.3034-2.4035,3.48564-3.57556C139.08121,50.95268,139.13752,50.86582,139.25012,50.88018Z"/><path class="g" d="M90.75461,14.355l.41183.00162.66912.00187,1.24807-.00408,1.0783.00265a48.62541,48.62541,0,0,1,7.73087.88759c.06713.01308.13258.03489.19883.0526.02183.1366-.09334.19266-.16473.27082-.40544.44391-.87653.82006-1.29678,1.24857C99.48287,17.98644,98.276,19.09551,97.12326,20.26c-.30657.30971-.63525.60031-.95031.90357-.06282.06049-.12917.1841-.24971.06848a7.01405,7.01405,0,0,1-.13757-.81164,1.906,1.906,0,0,0-.34043-.79841.54042.54042,0,0,0-.6915-.24277,1.44039,1.44039,0,0,0-.85261.6261,16.76526,16.76526,0,0,0-1.06206,1.97091c-.11647.25869-.24284.512-.3749.76258-.0355.06742-.07585.148-.16672.13995-.09153-.008-.1179-.09468-.138-.16793A10.0671,10.0671,0,0,1,91.66561,18.6c.03519-.2478.10945-.48546.164-.72818a1.60685,1.60685,0,0,0-.02638-.86457.51182.51182,0,0,0-.604-.39886l-.00149.00031a1.6094,1.6094,0,0,0-.92128.41652,9.14236,9.14236,0,0,0-1.695,2.4123q-.74907,1.35151-1.47069,2.71783c-.07106.1344-.13365.37718-.30364.32225-.12722-.04111-.03959-.28209-.02455-.429.09384-.91406.259-1.81743.41672-2.72215a.54056.54056,0,0,0-.51816-.72511,1.88864,1.88864,0,0,0-1.547.39385,11.30527,11.30527,0,0,0-2.1319,2.25665,16.16884,16.16884,0,0,0-2.322,5.10843c-.408,1.44912-.66219,2.93024-.93264,4.40813-.04794.26186-.09982.52291-.15275.78374-.01294.06379-.01189.15854-.09394.16406-.09418.00633-.12034-.089-.13273-.162-.06635-.39063-.19165-.76621-.28755-1.14909-.29407-1.17444-.58614-2.34947-.98764-3.49369a2.33061,2.33061,0,0,0-.17116-.40211.93611.93611,0,0,0-1.45691-.247,2.1498,2.1498,0,0,0-.367.46161,23.90221,23.90221,0,0,0-2.34247,5.03161,38.86883,38.86883,0,0,0-1.39818,4.30957A60.11912,60.11912,0,0,0,71.13636,42.829c-.04857.38307-.08691.7676-.15179,1.14856-.12448.73146-.44948,1.03517-1.186,1.00716-1.62184-.06172-3.24392-.0535-4.86568-.03846a4.384,4.384,0,0,0-1.69618.24533A1.77944,1.77944,0,0,0,62.12116,46.837a12.82412,12.82412,0,0,0,.38273,2.69627c.20362,1.13216.44688,2.25716.69082,3.38159a.90825.90825,0,0,1,.03778.30508.5811.5811,0,0,1-.1979.263c-1.15746,1.18508-2.36525,2.31924-3.54713,3.47938-.66723.65492-1.31421,1.33224-2.0048,1.96228-.74263.67751-1.41567,1.42529-2.156,2.10263-.69738.638-1.35272,1.31675-2.02139,1.98271a52.09585,52.09585,0,0,1-7.06258,5.85862c-.38781.26949-.78015.53173-1.1735.79268-.08193.05436-.15818.14073-.2768.09695-.15024-.73816-.22029-1.48745-.29843-2.2349-.11385-1.08891-.1908-2.181-.22254-3.27582l-.00264-1.0783.0041-1.248L44.271,61.252l-.00162-.41182a48.12124,48.12124,0,0,1,2.27082-13.04563c.08366-.26065.17858-.51771.26827-.77643a2.99552,2.99552,0,0,1,.35357-.40723c1.40268-1.41426,2.83879-2.79482,4.26031-4.18985.8945-.87778,1.76128-1.78469,2.67966-2.637.951-.88262,1.82632-1.84131,2.77587-2.72312.90671-.842,1.74084-1.75684,2.64721-2.59669.94535-.87613,1.81385-1.82953,2.75748-2.70511.93226-.865,1.78911-1.80566,2.72037-2.66938.93872-.87064,1.80169-1.81733,2.739-2.68717.93216-.86508,1.78946-1.80529,2.72054-2.66916.93852-.87083,1.80157-1.81746,2.73889-2.6872.93221-.865,1.79181-1.80265,2.72118-2.66859.54687-.50954,1.06932-1.04234,1.6037-1.5637a1.022,1.022,0,0,1,.27208-.19143,15.98408,15.98408,0,0,1,1.9551-.6028,47.29364,47.29364,0,0,1,10.02609-1.614Q90.267,14.381,90.75461,14.355Z"/><path class="h" d="M139.25012,50.88018c-.88806.84773-1.73488,1.73628-2.58937,2.61725q-2.49192,2.56916-4.894,5.22241c-1.0358,1.146-2.03715,2.3236-3.09013,3.45331-.61906.66417-1.30658,1.26479-1.96748,1.88958q-1.77727,1.68024-3.55946,3.35535-3.66117,3.45378-7.32146,6.90846-2.6874,2.53491-5.37638,5.06816-3.67055,3.46255-7.33973,6.92655-2.70587,2.55286-5.41337,5.104-1.4617,1.37638-2.92866,2.74721c-.1052.006-.09631-.08162-.10725-.14158a4.1219,4.1219,0,0,0-.38977-1.27468.29983.29983,0,0,1,.08528-.39075c.32148-.3221.64172-.64542.96562-.96515.41577-.41045.78458-.86386,1.1845-1.288a1.38656,1.38656,0,0,0,.2858-1.25108.78479.78479,0,0,0-.26547-.431,8.86126,8.86126,0,0,1-.989-1.08181,5.54443,5.54443,0,0,1-.98844-2.96221c-.04931-.87783.15731-1.74373.10611-2.62082-.0075-.12835-.00284-.25683-.02257-.38509a1.15447,1.15447,0,0,1,.66841-1.34157c.37886-.20175.75689-.40472,1.13283-.61191a23.25915,23.25915,0,0,0,2.54836-1.83345,35.60841,35.60841,0,0,1,6.00454-3.63708,34.16754,34.16754,0,0,1,5.31874-1.93341c2.08171-.58873,4.15123-1.21978,6.22046-1.85116.18059-.05512.36427-.09962.54264-.1629a2.96038,2.96038,0,0,0,2.06136-2.47361c.13128-.80489.19551-1.61811.28814-2.42759a16.84021,16.84021,0,0,1,.59-2.66129,7.41837,7.41837,0,0,0,.23526-3.28665,3.83166,3.83166,0,0,0-2.72739-3.07161c-.46009-.16645-.92911-.30808-1.39115-.46949-.29472-.103-.32814-.19463-.20164-.48416.13405-.30683.27982-.60821.42-.91219a13.14761,13.14761,0,0,0,.7245-2.91617c.14337-.68891.22008-1.3904.38253-2.0758a1.0724,1.0724,0,0,1,.28579-.32684c.768-.698,1.50158-1.43164,2.2489-2.151q1.54743-1.4896,3.09384-2.98038c.84922-.82358,1.70626-1.63937,2.55974-2.45871q1.373-1.31815,2.743-2.63941c.87193-.83722,1.74868-1.66932,2.6157-2.51178.31315-.30428.638-.59756.94944-.90453.05414-.05336.10812-.114.19812-.09854a39.31944,39.31944,0,0,1,2.26274,3.57924A47.60458,47.60458,0,0,1,139.21578,50.679C139.23227,50.74475,139.23885,50.81306,139.25012,50.88018Z"/><path class="g" d="M63.53293,101.12562a43.49586,43.49586,0,0,1-3.98642-3.33221,48.33648,48.33648,0,0,1-7.84795-9.4652c-.03635-.05721-.0647-.11952-.09678-.17945a.54752.54752,0,0,1,.18187-.24435c1.8267-1.8275,3.632-3.67714,5.48652-5.47592,2.37238-2.301,4.66892-4.67762,7.03353-6.98569q1.60284-1.56455,3.18969-3.14487a.48526.48526,0,0,1,.204-.15212,16.06837,16.06837,0,0,1,1.74014.34694,44.90791,44.90791,0,0,1,5.19068,1.41276,15.583,15.583,0,0,1,5.08549,2.70975c1.581,1.33687,3.229,2.58584,4.87359,3.84048a.63721.63721,0,0,1,.20044.19637c.03156.09081-.02418.14746-.08389.19761-.546.45851-1.02693.986-1.54156,1.47724q-1.11644,1.06574-2.22308,2.14367c-.93953.91589-1.88864,1.82225-2.83434,2.732q-1.25155,1.20392-2.50607,2.40481-1.39985,1.34692-2.79907,2.69445-1.289,1.23925-2.57916,2.47735-1.36235,1.3115-2.72585,2.62189-1.29045,1.2377-2.58044,2.47587c-.39472.381-.79439.75745-1.18581,1.14223C63.67439,101.07246,63.62238,101.13487,63.53293,101.12562Z"/><path class="g" d="M132.14678,35.159q-1.67079,1.6043-3.34155,3.20879-3.10867,2.98669-6.2168,5.97406-2.26342,2.1763-4.52515,4.35434c-.17894.172-.36644.33513-.54988.50238-.10035-.11819-.03442-.24774-.01578-.3682.08907-.57676.2002-1.15.26961-1.72995a3.18953,3.18953,0,0,0-.12273-1.37449,1.99644,1.99644,0,0,0-1.291-1.30612,4.55321,4.55321,0,0,0-1.54351-.248c-1.39082-.00845-2.782.01463-4.17248-.01a16.23247,16.23247,0,0,1-2.20531-.148c-.67348-.10451-.86316-.2937-.97855-.96465-.12068-.70174-.18-1.41251-.33513-2.1099a17.99218,17.99218,0,0,0-2.09251-5.10222,1.41348,1.41348,0,0,1-.237-.48133c.004-.137.11209-.20689.195-.28979,1.71047-1.71245,3.401-3.44549,5.13865-5.13,2.52048-2.44339,4.96742-4.96,7.46764-7.42326a4.78056,4.78056,0,0,1,.75867-.64823,42.65885,42.65885,0,0,1,4.02526,2.85406,48.2257,48.2257,0,0,1,9.6652,10.26666C132.07822,35.04092,132.11109,35.101,132.14678,35.159Z"/><path class="h" d="M97.58277,110.49751q1.74258-1.5456,3.485-3.09139,2.3475-2.08637,4.69278-4.1752,3.31821-2.95141,6.5744-5.97112,3.54108-3.28035,7.03733-6.60835,2.3269-2.223,4.65212-4.44785,2.31115-2.2212,4.6102-4.45508,2.04224-1.98127,4.07593-3.97132,3.6259-3.53055,7.20375-7.10962a1.26669,1.26669,0,0,1,.09808-.08086c-.179,1.21352-.43952,2.41084-.73632,3.59984a48.23677,48.23677,0,0,1-38.07987,35.80151C99.99943,110.20831,98.7964,110.39292,97.58277,110.49751Z"/><path class="h" d="M67.66788,72.19027q-1.322,1.31534-2.644,2.63057-.99471.98889-1.99069,1.97638-2.66262,2.65146-5.32454,5.30358-3.04951,3.02782-6.10676,6.04788a35.75489,35.75489,0,0,1-1.80742-3.10837,47.71959,47.71959,0,0,1-4.518-12.49834,27.47347,27.47347,0,0,1-.48392-2.78383c1.40381-.88229,2.72556-1.87873,4.04483-2.8806a57.48477,57.48477,0,0,0,5.364-4.84752q3.53186-3.46,7.07383-6.90981c.63254-.61717,1.27126-1.22788,1.90713-1.84157.10026.04773.11092.14562.13073.23707.19089.88086.42592,1.751.63965,2.62626.08807.36065.08416.3874-.25025.56984-.708.38621-1.42811.7523-2.103,1.19495A7.0435,7.0435,0,0,0,59.341,60.01207a3.11481,3.11481,0,0,0-.13218,3.16615,8.452,8.452,0,0,1,.94623,4.09544,3.97235,3.97235,0,0,0,3.23749,3.95378c1.31777.28,2.63939.54143,3.95676.8233C67.464,72.07518,67.59272,72.07327,67.66788,72.19027Z"/><path class="h" d="M63.53293,101.12564q2.56938-2.4721,5.13857-4.94442,1.88247-1.813,3.76267-3.628,3.453-3.31794,6.90954-6.63226,1.87518-1.80176,3.74439-3.60971.84366-.81245,1.69188-1.62017c.09837-.04023.16527.02712.23069.07632.98.737.84755.6127.87858,1.63411.02059.67735.05942,1.3543.04283,2.03193a5.01809,5.01809,0,0,1-.38035,1.85558,3.9751,3.9751,0,0,1-1.28848,1.60948,2.50252,2.50252,0,0,0-.48683.45586,1.25955,1.25955,0,0,0-.11812,1.40443,3.46432,3.46432,0,0,0,.67226.90675c.33592.34392.678.68189,1.019,1.02078a.67681.67681,0,0,1,.21107.71608,2.17826,2.17826,0,0,0,.011,1.0472,3.66766,3.66766,0,0,1,.02823,1.83224,1.47932,1.47932,0,0,0-.02619.38454q0,.94012-.0002,1.88025a1.996,1.996,0,0,0,.14351.9546,1.16809,1.16809,0,0,1,.04517.68556c-.06684.50215-.16481.99952-.23791,1.50061a.4097.4097,0,0,1-.38479.4075.74975.74975,0,0,0-.07567.01544c-.87816.19062-1.08707.45538-1.14213,1.35258-.03682.60015-.05021,1.19961-.05009,1.80018,0,.10055.01436.20923-.07715.287q-1.04741.98187-2.09447,1.9639-1.269,1.19556-2.53415,2.39529a43.8312,43.8312,0,0,1-5.42116-1.902,47.94914,47.94914,0,0,1-10.03223-5.73611C63.65065,101.22527,63.59268,101.17425,63.53293,101.12564Z"/><path class="h" d="M118.34874,21.86434q-2.09969,2.08607-4.19943,4.17209-1.04094,1.0341-2.08214,2.06791-3.55991,3.53871-7.11953,7.07759c-.04254.04229-.08767.08195-.13161.12285-.10013-.00624-.14914-.0817-.19245-.15415-.59964-1.00307-1.34146-1.911-1.93919-2.91581a8.74865,8.74865,0,0,1-1.22577-3.603,9.24316,9.24316,0,0,0-.21633-1.26831,1.05561,1.05561,0,0,0-.46421-.65528.45346.45346,0,0,0-.61278.02534,1.59906,1.59906,0,0,0-.49046.74255c-.115.32379-.20852.65424-.303.98449-.08516.29764-.19638.33106-.42976.12813a5.94513,5.94513,0,0,1-1.09684-1.4545,13.619,13.619,0,0,1-1.6352-4.259c-.0917-.41917-.1794-.83985-.24143-1.26463-.0162-.111-.07854-.23117.01778-.33889q2.48533-2.42773,4.97178-4.85435c.3806-.37062.775-.72715,1.13338-1.12013a42.31829,42.31829,0,0,1,4.798,1.22435,47.72542,47.72542,0,0,1,11.33523,5.25325C118.26777,21.802,118.30749,21.83439,118.34874,21.86434Z"/><path class="h" d="M77.7983,16.6225q-1.47555,1.45539-2.9514,2.91054-1.85439,1.82316-3.71233,3.64267Q68.25,26.00777,65.36608,28.84058q-2.67384,2.62428-5.34934,5.24677Q57.2505,36.80124,54.485,39.5158,51.80172,42.14823,49.11777,44.78q-1.07535,1.05465-2.15148,2.10853c-.04848.04743-.105.08662-.1578.12959A39.4629,39.4629,0,0,1,48.42083,42.882,48.40162,48.40162,0,0,1,77.5504,16.67771.512.512,0,0,1,77.7983,16.6225Z"/><path d="M95.98632,21.27162a16.58112,16.58112,0,0,0,1.4758,5.0356,11.39339,11.39339,0,0,0,1.23914,1.9516c.13641.17337.30072.41856.502.39238.14495-.01884.13566-.336.19326-.51976a3.9293,3.9293,0,0,1,.44885-1.14268c.16738-.237.35547-.51473.68808-.45778a.96081.96081,0,0,1,.72915.663,3.71146,3.71146,0,0,1,.20553,1.00568,9.89815,9.89815,0,0,0,2.04965,5.19029c.45722.6202.86692,1.27544,1.29822,1.91476.39626.72125.80893,1.43306,1.166,2.17589a15.9775,15.9775,0,0,1,1.41028,4.52043c.061.39734.105.79725.16492,1.19475a.773.773,0,0,0,.67.70891,9.47177,9.47177,0,0,0,1.30115.13223c1.80049.10275,3.60312.04855,5.40494.065a4.52672,4.52672,0,0,1,1.21727.16909,2.24779,2.24779,0,0,1,1.713,2.2592,14.08053,14.08053,0,0,1-.28085,2.23835c-.02023.14378-.04611.28666-.06933.4299-.23267,1.31613-.45208,2.63464-.72955,3.94274a9.09772,9.09772,0,0,1-.68969,1.79561,2.71683,2.71683,0,0,1-.13187.27893c-.10357.17547-.06577.25855.1369.32424a19.4682,19.4682,0,0,1,1.84276.64392,3.90516,3.90516,0,0,1,2.45187,3.59208,8.72559,8.72559,0,0,1-.45777,3.18853,15.08369,15.08369,0,0,0-.52991,2.90325c-.06487.5965-.117,1.19644-.22418,1.78584a2.9842,2.9842,0,0,1-2.23839,2.46536c-2.06753.62068-4.13061,1.25714-6.20674,1.84784a36.00161,36.00161,0,0,0-6.30428,2.33747A37.0409,37.0409,0,0,0,97.894,78.52458a15.90045,15.90045,0,0,1-2.55614,1.58022,1.04932,1.04932,0,0,0-.639,1.22011c.01361.1191.01578.23949.02653.359a19.113,19.113,0,0,1-.10769,2.20764A5.44834,5.44834,0,0,0,96.459,88.27137a1.24613,1.24613,0,0,1,.207,1.7501q-.02935.03723-.06147.07215a29.09343,29.09343,0,0,1-2.04636,2.17326c-.29728.29982-.29935.2996-.12061.67074A6.17247,6.17247,0,0,1,94.77,94.17241a1.47083,1.47083,0,0,1-.15621.695,1.2868,1.2868,0,0,0,.08748,1.34269.40942.40942,0,0,1,.05.43955,2.75694,2.75694,0,0,0-.156,1.85678,4.15631,4.15631,0,0,1,.0382,1.37925.93708.93708,0,0,0,.6499,1.15493l.031.0081a1.28765,1.28765,0,0,1,1.001,1.3234c.02251.75484.0156,1.511.00245,2.26628a.84083.84083,0,0,1-.79556.82831c-.08523.00865-.17147.00849-.25728.00991-3.16687.05227-6.334.03857-9.50106.03295-.30694-.00055-.615-.03193-.92362-.03369a.92524.92524,0,0,1-1.0458-.92576c.03682-.668-.01857-1.33846.0512-2.0057.01513-.14482.03552-.28921.0466-.43432a1.06232,1.06232,0,0,1,.9203-1.02113c.60139-.14377.59924-.15078.69314-.76575.05173-.33878.102-.67786.15972-1.01566a1.41955,1.41955,0,0,0-.14366-1.067.39239.39239,0,0,1-.03759-.22366c.04706-.746-.01155-1.49223.00749-2.23833a4.48946,4.48946,0,0,1,.09819-.89258,3.41387,3.41387,0,0,0-.0926-1.42566,2.13717,2.13717,0,0,1,.04483-1.26526c.06-.14327-.04253-.23127-.12163-.31353-.39844-.41439-.80517-.82081-1.20565-1.23327a3.79546,3.79546,0,0,1-.56092-.73487,1.36984,1.36984,0,0,1,.32743-1.88485,8.59409,8.59409,0,0,0,.8498-.74617A4.28867,4.28867,0,0,0,85.85585,84.313c.0081-.86564-.03352-1.73176-.05365-2.59766a.56009.56009,0,0,0-.24394-.43374c-.25617-.20093-.51843-.39408-.77822-.59046q-1.33823-1.021-2.67674-2.04146c-.92841-.70465-1.79209-1.48876-2.70907-2.20681a15.57623,15.57623,0,0,0-4.28835-2.29577,48.35819,48.35819,0,0,0-6.70955-1.81171c-.24222-.05135-.48568-.09691-.72855-.1451-1.41647-.29586-2.83846-.56809-4.248-.89384a4.03041,4.03041,0,0,1-3.24091-2.98487,2.727,2.727,0,0,1-.08942-.78971,9.11391,9.11391,0,0,0-.942-4.29826,3.34345,3.34345,0,0,1,.79044-4.08507,11.58544,11.58544,0,0,1,2.84671-2.0092c.347-.18705.69182-.37806,1.03908-.56458.09042-.04857.13771-.08963.10608-.21608-.25565-1.02173-.49986-2.04632-.74755-3.0701-.17862-.88-.36168-1.75923-.53465-2.64041-.19942-1.01595-.40967-2.03037-.575-3.05211a2.73457,2.73457,0,0,1,.06555-1.32589,1.8992,1.8992,0,0,1,1.57079-1.2829,8.72445,8.72445,0,0,1,1.66427-.11269c1.13339.0014,2.2668.0024,3.40014.01027.3509.00244.70157.03584,1.05248.0388a.91712.91712,0,0,0,1.08374-.90961c.09761-.65142.1762-1.3057.26206-1.95887.21422-1.62943.50982-3.24421.84686-4.8526a47.68539,47.68539,0,0,1,2.3172-7.15586A19.63931,19.63931,0,0,1,76.16,26.49977a1.05666,1.05666,0,0,1,1.96144.26246c.44595,1.27078.76425,2.57779,1.09521,3.88115.08756.3448.17628.68931.27652,1.08108.30373-1.56582.53638-3.09477.909-4.59517A17.81738,17.81738,0,0,1,82.59524,21.721,11.48532,11.48532,0,0,1,85.1106,18.9209,2.00568,2.00568,0,0,1,86.809,18.543a.60929.60929,0,0,1,.48454.71252l-.00474.02253c-.09424.60869-.24612,1.20726-.31422,1.82072-.05055.45533-.11119.90953-.12513,1.381.21917-.404.44161-.80624.65689-1.21228.51837-.97768,1.0473-1.94943,1.60781-2.90371a6.255,6.255,0,0,1,1.22121-1.48521,1.46561,1.46561,0,0,1,.87008-.34531c.43586-.04152.68029.20386.73591.73207a1.614,1.614,0,0,1-.045.6367,7.16314,7.16314,0,0,0,.06731,3.757,8.51626,8.51626,0,0,0,.36275,1.19754c.14269-.28676.29254-.57023.42662-.86089a19.47757,19.47757,0,0,1,1.07736-2.019,1.52529,1.52529,0,0,1,.93629-.6749.5686.5686,0,0,1,.7309.26363,2.338,2.338,0,0,1,.41228,1.173C95.92989,20.91667,95.96056,21.09387,95.98632,21.27162Z"/><path class="i" d="M91.07912,17.29075a11.67587,11.67587,0,0,0-.037,2.46157,16.31392,16.31392,0,0,0,1.13011,4.38924c.43539,1.12478,1.00595,2.19257,1.3917,3.338a15.99212,15.99212,0,0,1,.84933,5.12788q.00685,20.32635.0023,40.65268c0,.103.0002.20618-.00526.30895a.9732.9732,0,0,1-.85985,1.0498c-.78683.20587-1.57571.40446-2.35865.62418-.20482.0575-.22148-.00452-.223-.18059q-.0273-3.23122-.06621-6.46234c-.0206-1.77629-.04681-3.55253-.06821-5.32881q-.04466-3.7071-.08619-7.41426-.03219-2.677-.06868-5.35395-.0263-2.05962-.05133-4.11923-.044-3.79718-.08605-7.59436-.02411-2.08534-.05159-4.17064-.03271-2.45819-.07108-4.91637c-.001-.06456.05325-.1743-.07055-.18429-.1499-.01212-.09521.11358-.09644.18433q-.022,1.22262-.03564,2.44536-.04464,4.10652-.08722,8.21307c-.01981,1.7591-.04646,3.5181-.06739,5.27718q-.04521,3.79755-.087,7.59512c-.021,1.76754-.04659,3.535-.06765,5.30256q-.0451,3.78463-.08693,7.56932-.03168,2.66421-.0682,5.32841c-.01608,1.2098-.0397,2.41961-.0459,3.62955-.00106.20374-.077.216-.24035.19761-.92029-.10385-1.84152-.1995-2.76221-.29963a.83785.83785,0,0,1-.79663-.86586c-.00982-.24845.00563-.49778.00564-.74673q.00061-12.62387.00074-25.24772.00057-4.39243.00876-8.78487.00371-2.27918.01689-4.55832c.00862-1.528-.00412-3.05679.03969-4.58388a20.66414,20.66414,0,0,1,2.00332-8.82456A13.60179,13.60179,0,0,1,91.07912,17.29075Z"/><path class="i" d="M89.25985,81.19954a11.61044,11.61044,0,0,1-3.7873-.66653A9.44,9.44,0,0,1,82.933,78.8045c-1.12847-.93758-2.21824-1.9213-3.38412-2.81433a17.47493,17.47493,0,0,0-4.39128-2.31747A42.474,42.474,0,0,0,65.89329,71.211a22.31212,22.31212,0,0,1-2.51664-.37281,4.47378,4.47378,0,0,1-1.88323-.9561,3.42314,3.42314,0,0,1-1.08479-2.37034c-.077-.85408-.1609-1.70758-.24659-2.56086-.01424-.14181-.02718-.21609.17139-.16935,4.12631.97158,8.26234,1.902,12.37943,2.91261a19.1625,19.1625,0,0,1,6.54392,3.11905,33.68328,33.68328,0,0,1,2.64733,2.12633,11.03023,11.03023,0,0,0,5.75282,2.76835,11.68724,11.68724,0,0,0,4.78867-.35577,21.01441,21.01441,0,0,0,6.30574-3.04336c1.409-.96067,2.76363-2.00179,4.23081-2.87637a26.77187,26.77187,0,0,1,5.62736-2.4075c3.43276-1.09648,6.88081-2.14195,10.366-3.06165.1935-.051.251-.04106.23056.18028-.10248,1.1103-.167,2.225-.32559,3.32886a2.615,2.615,0,0,1-1.65538,2.07531,24.7202,24.7202,0,0,1-2.82842.926c-2.54808.79518-5.10771,1.55387-7.65033,2.36589a24.04118,24.04118,0,0,0-6.1706,3.22387c-1.33311.90868-2.57871,1.93758-3.907,2.8511A12.62,12.62,0,0,1,89.25985,81.19954Z"/><path class="i" d="M85.29508,39.88272v.27738q0,8.22807.00491,16.45612a.32.32,0,0,1-.24771.36645c-1.29356.46965-2.55132,1.038-3.88179,1.40581a13.96574,13.96574,0,0,1-4.84178.418c-.79481-.06173-1.58678-.15834-2.38142-.22408-.17166-.0142-.18235-.06292-.16256-.21716q.63864-4.98714,1.26444-9.97593.35857-2.84568.71221-5.69184c.06991-.56.27352-.7532.843-.73824a14.46976,14.46976,0,0,0,6.46788-1.41083A14.77042,14.77042,0,0,1,85.29508,39.88272Z"/><path class="i" d="M95.24891,48.423c0-2.74783.0033-5.49569-.00594-8.24349-.00077-.23219.04785-.24646.26044-.20514A17.694,17.694,0,0,1,98.53284,41.011a13.52471,13.52471,0,0,0,5.177.94635,3.65848,3.65848,0,0,1,.386.006.56894.56894,0,0,1,.5749.4933c.1328.60352.17589,1.221.25478,1.83277.22157,1.71827.43395,3.43763.65014,5.15657q.31944,2.53986.63893,5.07971c.15854,1.26728.31322,2.535.47288,3.80219.01539.12224.02894.19859-.14311.21468-1.451.13574-2.89291.37748-4.35619.3681a7.89689,7.89689,0,0,1-3.73563-.88979,12.10946,12.10946,0,0,0-2.50634-.82886c-.69607-.19409-.69735-.18936-.69735-.91173Z"/><path class="i" d="M78.93026,40.52537c.18294-.17167.33432-.32193.49444-.46211a1.005,1.005,0,0,0,.29885-.79011c.03406-1.04576.07471-2.09129.10724-3.13707a25.954,25.954,0,0,1,.377-3.08787c.31288-2.05933.72435-4.10131,1.1008-6.14959a13.95769,13.95769,0,0,1,3.80252-7.09807,1.88634,1.88634,0,0,1,.33631-.27878c.29722-.19638.60183-.38148.93844-.5931-.04769.82933-.09257,1.6141-.138,2.39879q-.16717,2.88918-.33508,5.77831-.17121,2.91466-.34655,5.829-.16482,2.82492-.32051,5.65035c-.03489.65124-.02367.64954-.64015.88442a43.5851,43.5851,0,0,1-4.40519,1.54794,12.73013,12.73013,0,0,1-2.85731.306c-.41956.0134-.83915.03884-1.2575.0735a.82564.82564,0,0,0-.76339.65917.68487.68487,0,0,1-.33488.43532c-1.05139.57273-2.10636,1.13888-3.1692,1.71208a3.09381,3.09381,0,0,1-.19518-1.43,29.251,29.251,0,0,1,1.2529-6.57708,42.09745,42.09745,0,0,1,2.53261-6.9079,10.58029,10.58029,0,0,1,1.49593-2.41975c.0563-.06463.118-.12449.175-.18857.093-.1045.14367-.09444.21556.03666a10.22214,10.22214,0,0,1,.83867,2.2293,24.92909,24.92909,0,0,1,.76118,9.1259c-.04572.46912-.10944.9373-.18652,1.40232A2.23531,2.23531,0,0,0,78.93026,40.52537Z"/><path class="i" d="M101.21887,38.53088c.14694-.228.276-.41807.394-.6148a.76167.76167,0,0,0,.11006-.46761c-.1538-1.7424-.3-3.48529-.6-5.21128a17.98094,17.98094,0,0,0-.91451-3.04675,1.98664,1.98664,0,0,1,.34345-2.06789.49535.49535,0,0,0,.052-.1161l.07539.03961c.04955.36161.11494.72185.14584,1.085a11.418,11.418,0,0,0,1.28827,3.98428c.59289,1.22825,1.37024,2.3517,2.023,3.54636a26.13,26.13,0,0,1,2.56384,6.27731,2.789,2.789,0,0,1,.00658,1.46134,2.12464,2.12464,0,0,1-.41995-.46662,13.37242,13.37242,0,0,0-.95329-1.08048,1.47221,1.47221,0,0,0-1.132-.45,13.51782,13.51782,0,0,1-6.59816-1.38121,11.38817,11.38817,0,0,0-2.23594-.66185c-.20176-.05072-.26125-.1288-.26271-.34037-.01094-1.54436.002-3.08734.04835-4.63184a25.37824,25.37824,0,0,0-1.27537-8.0152,11.12973,11.12973,0,0,1-.6087-2.09225,4.96841,4.96841,0,0,1,1.544-4.21252,1.54,1.54,0,0,1,.16145-.12761c.01178-.00877.03147-.00661.06487-.01261.19578.66305.35609,1.33642.51252,2.01086a26.714,26.714,0,0,0,1.05839,3.806,10.28392,10.28392,0,0,0,1.63928,2.68484,10.49092,10.49092,0,0,1,2.1989,5.29509c.16516,1.20786.21607,2.426.34776,3.63681A3.75267,3.75267,0,0,0,101.21887,38.53088Z"/><path class="h" d="M103.23745,62.92157c1.60524-.00232,3.21047-.00835,4.81571-.005.57489.00119,1.14995.02279,1.72429-.011a.86218.86218,0,0,0,.90093-1.13524,4.54478,4.54478,0,0,1-.02328-.97023,27.6757,27.6757,0,0,0,3.41217.80435,11.60119,11.60119,0,0,1,2.43.73705,6.13036,6.13036,0,0,1,1.66457,1.10551.2344.2344,0,0,1,.10939.17034c-.58122.174-1.16689.35243-1.75429.52478-2.48214.72849-4.98284,1.3939-7.43373,2.22781a41.86509,41.86509,0,0,0-8.31152,4.03216Q98.0819,72.045,95.39351,73.69c-.07148.04368-.14642.08173-.2478.138V70.69945c.03556-.14884.17709-.20349.26966-.30118.70875-.74749,1.47567-1.43562,2.21374-2.15311q1.39272-1.35378,2.79777-2.69532c.83536-.80145,1.67794-1.5953,2.50249-2.40813A.5986.5986,0,0,1,103.23745,62.92157Z"/><path class="g" d="M77.00032,62.91085q3.43729-.00351,6.87459-.00685c.35189-.00034.70444.01276,1.05551-.00484.21105-.01052.25614.06534.25565.26284q-.00914,3.64344-.004,7.28688c0,1.28743-.00425,2.57487.00417,3.86226.0014.216-.04438.2357-.24263.16506A8.25838,8.25838,0,0,1,82.958,73.16344c-1.43774-1.04057-2.73008-2.26574-4.17273-3.29937a16.57112,16.57112,0,0,0-3.71266-1.92236c-.75932-.29419-1.53666-.53491-2.31285-.779.00622-.11681.09857-.17676.16948-.24777q1.90107-1.90451,3.8044-3.80683A.8009.8009,0,0,1,77.00032,62.91085Z"/><path class="i" d="M69.73309,60.044a1.08883,1.08883,0,0,1-.8379,1.21531c-.68572.21409-1.38951.36947-2.08181.56335a12.71324,12.71324,0,0,0-4.78682,2.33756.92212.92212,0,0,1-1.29811.12447l-.02114-.018a2.90237,2.90237,0,0,1-.77946-4.47836,10.0489,10.0489,0,0,1,4.909-3.00163c1.373-.39764,2.755-.764,4.12952-1.15649.17465-.04987.21566-.01064.23495.15021q.184,1.53171.3776,3.06228C69.63411,59.28479,69.69229,59.72652,69.73309,60.044Z"/><path class="i" d="M110.5705,59.19686c.09628-1.39482.239-2.78492.3634-4.17663.01323-.14795.0356-.19952.20724-.15707,2.01044.49711,4.03891.92143,6.03225,1.48759a3.71289,3.71289,0,0,1,2.89587,3.79053,7.85162,7.85162,0,0,1-.15472,1.63571,2.03829,2.03829,0,0,1-.32243.72292c-.22123.33629-.45374.66515-.67494,1.00144-.05907.08982-.08988.12659-.17772.02279a7.10729,7.10729,0,0,0-4.045-2.21951c-1.10078-.25327-2.21832-.43455-3.30057-.76735-.10611-.03263-.21121-.06875-.316-.10542a.6932.6932,0,0,1-.50685-.695C110.568,59.55692,110.5705,59.37687,110.5705,59.19686Z"/><path class="i" d="M92.2,91.69972c-.65607-.00377-1.213-.123-1.77823-.1532a20.712,20.712,0,0,0-2.7754.06373,2.39739,2.39739,0,0,1-2.32622-1.06839,10.37272,10.37272,0,0,0-1.06646-1.1494c-.09071-.09545-.12206-.1558-.02694-.27284.47045-.57884.91822-1.17565,1.41047-1.73745a1.54116,1.54116,0,0,1,1.19878-.54354c2.18761-.03191,4.375-.016,6.56224.0287a1.589,1.589,0,0,1,1.03272.4016c.62114.54292,1.15526,1.17173,1.726,1.76449.0945.09819.04558.16562-.00188.24642A4.40428,4.40428,0,0,1,92.2,91.69972Z"/><path class="i" d="M68.21429,45.37541c1.16773-.00016,2.33545.00159,3.50309-.00233.15128-.00051.22267.00368.19029.20284-.25621,1.57326-.49544,3.14927-.74506,4.72363a.62.62,0,0,1-.61658.51834,56.24824,56.24824,0,0,1-5.656-.116,2.32229,2.32229,0,0,1-1.56782-.84236,3.34635,3.34635,0,0,1-.85516-3.09,1.554,1.554,0,0,1,.82333-1.03125,4.08707,4.08707,0,0,1,2.24735-.40209C66.42983,45.38579,67.322,45.37005,68.21429,45.37541Z"/><path class="i" d="M112.09028,44.69492c1.26088,0,2.523-.03457,3.78224.01142a1.777,1.777,0,0,1,1.60186,1.90854,3.71142,3.71142,0,0,1-.985,2.47612c-.11034.13114-.24208.24472-.34814.37892a1.73166,1.73166,0,0,1-1.558.64212c-1.50066-.052-3.00368-.03563-4.50574-.04839a2.78948,2.78948,0,0,1-.3335-.02121.93873.93873,0,0,1-.94292-.93451v-.00477c-.128-1.428-.37818-2.83817-.59453-4.25321-.02829-.18511.03058-.1899.17422-.18976,1.15065.00117,2.30128-.00351,3.45191-.00633.08577-.00021.17156,0,.25734,0Z"/><path class="h" d="M77.00032,62.91085q-1.24079,1.24467-2.48161,2.48927-.87919.88158-1.759,1.76253c-3.52374-1.07492-7.1934-1.459-10.82485-2.24116A6.66451,6.66451,0,0,1,63.5118,63.568a12.47213,12.47213,0,0,1,3.22534-1.31715c.8799-.256,1.76805-.48462,2.63-.79843.14257-.05192.2076-.037.21868.12164a1.53909,1.53909,0,0,0,.04015.17511c.15605.81657.3935,1.02329,1.22292,1.11016.50545.05294,1.01129.03882,1.51673.04194C73.9105,62.9109,75.45543,62.90856,77.00032,62.91085Z"/><path class="j" d="M103.23745,62.92157q-1.2822,1.24789-2.565,2.49517-1.27724,1.23463-2.56286,2.46063Q96.63,69.2909,95.14572,70.69944q-.00423-2.56071-.00833-5.12151c-.00091-.66061-.00433-1.32125.00161-1.9818a.624.624,0,0,1,.687-.69012q3.66755-.00384,7.33509.00511A.551.551,0,0,1,103.23745,62.92157Z"/><path class="i" d="M90.32585,104.72047H85.77067c-.02574,0-.05155.00053-.07715-.001-.86736-.051-1.085-.29292-1.01527-1.15915a4.94974,4.94974,0,0,0-.01664-.82028.668.668,0,0,1,.6803-.8307c.642-.05047,1.28427.01674,1.9264.03007,1.06266.022,2.125.05719,3.18757.08368,1.00265.025,2.00544.04456,3.00808.06922a12.94953,12.94953,0,0,0,1.617-.08469c.20249-.02039.27447.007.26893.23763-.01776.73765-.01328,1.47609-.00193,2.214.00286.18626-.03481.24184-.23363.24064-1.59614-.00962-3.19235-.00538-4.78852-.00538Z"/><path class="i" d="M65.11909,56.12635a1.17151,1.17151,0,0,1-1.10757-.69958,4.72563,4.72563,0,0,1-.35386-1.59685c-.13131-1.01137-.236-2.0262-.35276-3.03949a.6009.6009,0,0,0-.03811-.19839c-.05927-.11747.01087-.11414.0854-.10169a.36131.36131,0,0,1,.11439.055c1.70232,1.0062,3.44072,1.9521,5.091,3.0452a2.12189,2.12189,0,0,1,.52445.45087.50184.50184,0,0,1-.06.75252,2.16639,2.16639,0,0,1-.66068.38868,13.97372,13.97372,0,0,1-3.14151.9306C65.17768,56.12039,65.13494,56.12434,65.11909,56.12635Z"/><path class="i" d="M77.92016,61.79648c-2.336,0-4.672-.00286-7.00793.00475-.21635.00071-.27542-.04227-.24158-.268q.70179-4.68072,1.38819-9.3637.55932-3.77844,1.123-7.55628c.01148-.07687-.03891-.20178.13025-.18822.18517.01483.13962.136.12449.23985q-.21082,1.45089-.42593,2.90119-.37834,2.58334-.75569,5.16686-.45031,3.06639-.90312,6.1324c-.06609.44963-.13659.89887-.18973,1.35008-.07571.64279.19194.99751.82914,1.04791,1.76932.13992,3.5341.3438,5.31327.348a9.84515,9.84515,0,0,0,3.30224-.69373,16.47672,16.47672,0,0,1,2.86964-.871,4.48354,4.48354,0,0,1,1.51087.01308c.15706.02852.21426.07627.20905.243-.01313.42041-.01776.84215.0014,1.2621.00933.20425-.05937.23618-.24394.23569Q81.4371,61.79135,77.92016,61.79648Z"/><path class="i" d="M117.10922,49.51692c-.27629,1.08636-.54,2.13927-.81281,3.18987-.15888.61192-.32833,1.22135-.4999,1.82993a.82877.82877,0,0,1-1.1278.6649c-1.16214-.32468-2.33584-.60013-3.51019-.87367-.20244-.04716-.17213-.194-.214-.324a.19422.19422,0,0,1,.08523-.25774q3.00089-2.096,5.99741-4.19834A.52574.52574,0,0,1,117.10922,49.51692Z"/><path class="i" d="M87.35974,96.09793c-.698-.00338-1.0519-.44231-.90611-1.05563a2.88,2.88,0,0,1,.17148-.48275.91036.91036,0,0,1,.69958-.567c1.7865-.38048,3.58688-.68284,5.38588-.99345.52146-.09.52249-.08187.75623.39021.07215.14575.15817.28579.2181.43621a.9878.9878,0,0,1-.74342,1.43562c-.79011.15444-1.59258.24547-2.3895.36508q-1.46271.21957-2.92524.44028C87.51672,96.083,87.40566,96.09267,87.35974,96.09793Z"/><path class="i" d="M86.798,83.80726c0-.69545.00333-1.39091-.00265-2.0863-.00128-.14921.01227-.20515.19382-.17786.68652.103,1.37637.1841,2.05791.31942a.65949.65949,0,0,1,.57567.67892c.005,1.12377.002,2.24761.014,3.37129.00193.18028-.06039.21014-.21976.20879-.79842-.00682-1.597-.00849-2.39533.001-.18039.00212-.23067-.04856-.22793-.229C86.8043,85.19822,86.798,84.5027,86.798,83.80726Z"/><path class="i" d="M93.75456,83.59349c0,.78139-.00787,1.56292.0054,2.34411.00351.2014-.05917.24233-.2456.23646-.53086-.0167-1.06253.01946-1.59361-.02117a.74867.74867,0,0,1-.70192-.6606c-.08823-.5714-.03638-1.14806-.07422-1.72127a7.23764,7.23764,0,0,1,.01845-1.2585,1.14028,1.14028,0,0,1,.72211-1.00919,10.19653,10.19653,0,0,1,1.75611-.48106c.19813-.04443.10848.114.109.17555C93.75675,81.99632,93.75456,82.79491,93.75456,83.59349Z"/><path class="i" d="M86.4202,97.72659a.9619.9619,0,0,1,.77655-.91382c1.94824-.34813,3.90892-.61595,5.86505-.91318.24534-.03727.67973.35135.69257.62142a.93369.93369,0,0,1-.73991.98262q-2.81115.61824-5.656,1.05667A.91563.91563,0,0,1,86.4202,97.72659Z"/><path class="h" d="M65.76241,51.198c.05468-.04692.11647-.02155.17161-.02162,1.63875-.00175,3.27751.00191,4.91623-.00556.21434-.001.27087.03646.236.27019-.35552,2.38037-.69616,4.763-1.04257,7.14471-.01.06889.02118.18959-.08468.18219-.09779-.00682-.06039-.12512-.06723-.19568-.123-1.271-.22947-2.54234-.26945-3.82023a2.10241,2.10241,0,0,0-1.03035-1.7489c-.87215-.56107-1.759-1.09935-2.63743-1.65067C65.8873,51.3102,65.7926,51.29427,65.76241,51.198Z"/><path class="i" d="M93.737,98.88586a.93716.93716,0,0,1-.80931.97584c-1.87.30579-3.751.53071-5.63047.76647-.21906.02748-.434.12434-.64933-.07549a.794.794,0,0,1-.27454-.80323.70355.70355,0,0,1,.5776-.55628c.47581-.10673.95869-.1833,1.4402-.26288,1.41156-.23319,2.82009-.483,4.22379-.75978.60405-.11913,1.00886.10623,1.10987.61481A1.00445,1.00445,0,0,1,93.737,98.88586Z"/><path class="g" d="M109.99137,56.44813a24.365,24.365,0,0,0-.70921-4.8384,5.92,5.92,0,0,0-.143-.75569c-.06647-.22592.00942-.25984.213-.259,1.5194.00612,3.03883.00193,4.55822.00474a4.06892,4.06892,0,0,1,.77776.02731,8.18607,8.18607,0,0,1-1.11547.786c-.60119.3807-1.20836.752-1.81277,1.12755a2.88408,2.88408,0,0,0-1.368,2.50423c-.01444.35137-.00643.70365-.00877,1.05551C110.28923,56.25752,110.20984,56.43119,109.99137,56.44813Z"/><path class="i" d="M102.27886,61.81324c-2.2314,0-4.46283-.00438-6.69425.00628-.24414.00116-.29685-.071-.2895-.29877.01662-.51441.005-1.02972.00551-1.54469,0-.08241-.026-.17969.12361-.15147.87542.16505,1.77252.18112,2.64191.39508a13.98889,13.98889,0,0,1,1.63587.669,11.13465,11.13465,0,0,0,3.89547.72248,27.623,27.623,0,0,0,5.60327-.452c.05885-.01147.12-.01248.17795-.02677.13208-.03258.18622.073.24733.14684.08241.09962-.052.119-.08655.17348a.73941.73941,0,0,1-.74813.33879c-.05938-.005-.11985.0047-.17986.0047q-3.16632.00044-6.33264.00027Z"/><path class="i" d="M105.635,43.45624c.14553,1.079.28624,2.11979.42641,3.16052q.3743,2.77877.748,5.55756.375,2.79166.74891,5.58348c.07646.56935.15184,1.13887.23434,1.70734.01732.11945.02323.17958-.13433.19607-1.15154.12046-2.3.27212-3.4528.37825a8.9502,8.9502,0,0,1-4.576-.65767,19.2957,19.2957,0,0,0-2.50579-.75219c-.67284-.19528-1.34639-.38824-2.08836-.602a4.31685,4.31685,0,0,1,2.0138.06434,7.63763,7.63763,0,0,1,1.82017.76027,5.93435,5.93435,0,0,0,2.54078.65017,20.66633,20.66633,0,0,0,4.53428-.28562c.25434-.03607.51113-.06663.7599-.12768a.71307.71307,0,0,0,.591-.76353,17.47771,17.47771,0,0,0-.2291-1.96567c-.24252-1.914-.4977-3.82645-.74753-5.73957q-.35307-2.70366-.70511-5.4075c-.04972-.38256-.10137-.76505-.14027-1.14879A.76778.76778,0,0,1,105.635,43.45624Z"/><path class="i" d="M101.21154,60.75908a7.37536,7.37536,0,0,1,1.23629-.1072c1.57533-.09117,3.14977-.19269,4.72185-.32847a4.17739,4.17739,0,0,0,.73411-.122.65759.65759,0,0,0,.51634-.75732,16.1657,16.1657,0,0,0-.21794-1.81208q-.44636-3.27429-.90579-6.54682-.39977-2.87865-.80035-5.75718a5.20581,5.20581,0,0,1-.06662-.87141c.00164-.05556-.0538-.144.06741-.15131.09581-.00577.1312.03577.14443.13185.07714.56046.16251,1.11973.24283,1.6797q.40519,2.82557.80871,5.65138.42336,2.96576.8453,5.93173c.12846.89947.255,1.79919.39307,2.69719.0268.17436.00161.22968-.19049.24835-1.18611.11553-2.36627.2895-3.55544.37587A11.8128,11.8128,0,0,1,101.21154,60.75908Z"/><path class="i" d="M79.41579,60.74148a5.74367,5.74367,0,0,1-1.5782.30669A20.53262,20.53262,0,0,1,73.9919,60.871c-.66471-.07442-1.32838-.1593-1.99427-.22063-.182-.01676-.22686-.06838-.20089-.24409.183-1.238.35873-2.47711.536-3.716q.37521-2.622.74931-5.24424.40151-2.813.80278-5.6261c.05932-.41577.117-.8318.17884-1.24721.00968-.065-.02806-.1751.10555-.15718.11993.01608.13369.08241.11747.19947q-.39181,2.81478-.77184,5.63117-.37128,2.7267-.74059,5.45366-.22682,1.68231-.445,3.36575a2.93407,2.93407,0,0,0-.0268.38467.7334.7334,0,0,0,.6391.81689q.03325.00406.06677.00508c.69007.07332,1.38411.10975,2.07675.1578q2.0139.13956,4.02807.27527C79.21435,60.71227,79.31491,60.72919,79.41579,60.74148Z"/><path class="i" d="M77.92386,59.51581A8.92975,8.92975,0,0,0,82.518,58.48419a5.32116,5.32116,0,0,1,1.956-.57444,4.82348,4.82348,0,0,0,.53253-.08448c.14054-.03506.19064.00276.188.14106a.44516.44516,0,0,0,.02148.15237c.05674.16218-.01179.19015-.16519.2104a14.21616,14.21616,0,0,0-2.78782.57457c-.63672.21917-1.23172.55112-1.879.75408a10.18392,10.18392,0,0,1-4.19819.34819q-1.57257-.17061-3.1458-.33489c-.10758-.01115-.169-.0162-.15057-.15894.166-1.28383.32217-2.56891.48853-3.85268.00789-.061-.0565-.2069.0954-.18211.134.0218.0557.13764.04862.20914-.082.82758-.17281,1.65431-.25273,2.48208-.059.6113.16114.89333.7771.982A27.15862,27.15862,0,0,0,77.92386,59.51581Z"/><path class="k" d="M87.67612,101.19291c.55708-.08786,1.08789-.17693,1.62038-.25443,1.05188-.15307,2.10862-.27712,3.1555-.45845a1.948,1.948,0,0,1,1.3402.39825.07442.07442,0,0,1,.029.12415c-.06206.09243-.03982.24993-.20194.26524-.03406.00321-.06864.00085-.103.00085q-2.82053,0-5.641-.001A.18981.18981,0,0,1,87.67612,101.19291Z"/><path class="k" d="M91.31793,92.66791c-.415.07385-.82933.15092-1.245.22092-.9295.15657-1.85941.30967-2.79307.44184-.418.05919-.65666-.2414-.96258-.40759-.07333-.03981.072-.31051.17975-.32787a.97641.97641,0,0,1,.15429-.00175q2.21475,0,4.4295.00058c.07839,0,.15675.00877.23512.01348Z"/><path class="l" d="M85.09514,59.31238l-3.09194.33931A3.83812,3.83812,0,0,1,85.09514,59.31238Z"/><path class="l" d="M95.41808,59.34861a3.04986,3.04986,0,0,1,2.84446.19423Z"/><path class="m" d="M109.99137,56.44813l.3919-.34774c.00229.57416-.00256,1.14856.01117,1.7225.00424.1767-.075.18217-.21306.19172-.16852.01168-.20213-.05291-.199-.20386C109.992,57.35667,109.98928,56.90235,109.99137,56.44813Z"/></g></svg>