<svg xmlns="http://www.w3.org/2000/svg" viewBox="0 0 82.7234 82.7234"><defs><style>.a{fill:#223d6d;}.b{fill:#fff;}.c{fill:none;stroke:#fff;stroke-miterlimit:10;stroke-width:2.34043px;}</style></defs><circle class="a" cx="41.3617" cy="41.3617" r="41.3617"/><path class="b" d="M52.57822,54.85255A65.63953,65.63953,0,0,0,69.44681,51.026a68.77618,68.77618,0,0,0-15.68149-3.73237c3.61492-2.36757,7.94954-6.55995,12.90641-13.75554-12.07864,1.53941-18.42292,4.67957-21.73882,7.72424C46.92086,37.43438,47.86,29.84593,41.3617,15.3169c-6.49831,14.529-5.55915,22.11748-3.5712,25.94539-3.3159-3.04467-9.66019-6.18483-21.73883-7.72424,4.95687,7.19559,9.29149,11.388,12.90641,13.75554A68.77612,68.77612,0,0,0,13.2766,51.026a65.63944,65.63944,0,0,0,16.86859,3.82659A50.28609,50.28609,0,0,0,22.68508,61.71C34.60955,61.0547,39.425,57.94778,41.3617,55.4669c1.9367,2.48088,6.75215,5.5878,18.67662,6.24311A50.2856,50.2856,0,0,0,52.57822,54.85255Z"/><line class="c" x1="41.3617" y1="55.4669" x2="41.3617" y2="62.97446"/></svg>