<svg xmlns="http://www.w3.org/2000/svg" viewBox="0 0 82.7234 82.7234"><defs><style>.a{fill:#223d6d;}.b{fill:#fff;}.c{fill:none;stroke:#fff;stroke-miterlimit:10;stroke-width:1.07701px;}</style></defs><circle class="a" cx="41.3617" cy="41.3617" r="41.3617"/><path class="b" d="M16.567,29.64022H58.0303A2.393,2.393,0,0,1,60.11594,30.86l2.71881,4.83345a2.393,2.393,0,0,1,.30732,1.17318V39.759a2.393,2.393,0,0,1-2.393,2.393H19.434a2.393,2.393,0,0,1-1.69207-.70088l-2.28776-2.28776a2.393,2.393,0,0,1-.68742-1.43862l-.57925-5.438A2.393,2.393,0,0,1,16.567,29.64022Z"/><path class="c" d="M36.46539,41.43008V46.464a2.45935,2.45935,0,0,0,2.45936,2.45935H45.215A2.45935,2.45935,0,0,0,47.67432,46.464V41.43008"/><path class="c" d="M43.41719,41.43008s1.78229,3.88412-2.34244,7.49326"/><polygon class="b" points="36.465 44.695 38.806 41.43 36.465 40.571 36.465 44.695"/><path class="b" d="M46.23067,48.92334a7.91206,7.91206,0,0,1,3.43727.72183s2.57836,5.96246,2.58326,10.40892A1.66579,1.66579,0,0,0,53.92544,61.71h9.21663s1.753-1.95925,1.54677-3.71226L59.63605,43.87054s0-1.16867,1.753-1.71863l-.20624-3.5404-13.5085,1.34054V48.0984Z"/><path class="b" d="M45.47654,40.50719c-.94093.2211-2.31139,1.06286-.79265,1.64472a3.29519,3.29519,0,0,1,2.45765,3.16229l1.10706-2.37172-1.753-2.61233A9.49766,9.49766,0,0,0,45.47654,40.50719Z"/></svg>